# AST/ASF file generated using VICON BodyLanguage
# -----------------------------------------------
:version 1.10
:name VICON
:units
  mass 1.0
  length 0.45
  angle deg
:documentation
   .ast/.asf automatically generated from VICON data using
   VICON BodyBuilder and BodyLanguage model FoxedUp or BRILLIANT.MOD
:root
   order TX TY TZ RX RY RZ
   axis XYZ
   position 0 0 0  
   orientation 0 0 0 
:bonedata
  begin
     id 1 
     name lhipjoint
     direction 0.535335 -0.74333 0.401095 
     length 2.04549 
     axis 0 0 0  XYZ
  end
  begin
     id 2 
     name lfemur
     direction 0.34202 -0.939693 0  
     length 6.95643  
     axis 0 0 20  XYZ
    dof rx ry rz
    limits (-160.0 20.0)
           (-70.0 70.0)
           (-60.0 70.0)
  end
  begin
     id 3 
     name ltibia
     direction 0.34192 -0.939729 0   
     length 5.55969   
     axis 0 0 20   XYZ
    dof rx
    limits (-10.0 170.0)
  end
  begin
     id 4 
     name lfoot
     direction 0.216943 -0.596046 0.773088   
     length 2.27918   
     axis -90 7.62852e-016 20   XYZ
    dof rx rz
    limits (-45.0 90.0)
           (-70.0 20.0)
  end
  begin
     id 5 
     name ltoes
     direction 1.53519e-011 -4.21748e-011 1   
     length 1.05562   
     axis -90 7.62852e-016 20   XYZ
    dof rx
    limits (-90.0 20.0)
  end
  begin
     id 6 
     name rhipjoint
     direction -0.576368 -0.719173 0.38806   
     length 2.1142  
     axis 0 0 0  XYZ 
  end
  begin
     id 7 
     name rfemur
     direction -0.34202 -0.939693 0   
     length 7.07928   
     axis 0 0 -20   XYZ
    dof rx ry rz
    limits (-160.0 20.0)
           (-70.0 70.0)
           (-70.0 60.0)
  end
  begin
     id 8 
     name rtibia
     direction -0.34202 -0.939693 0   
     length 5.79974   
     axis 0 0 -20   XYZ
    dof rx
    limits (-10.0 170.0)
 end
 begin
     id 9 
     name rfoot
     direction -0.189288 -0.520065 0.832888   
     length 2.42173  
     axis -90 -7.62852e-016 -20   XYZ
    dof rx rz
    limits (-45.0 90.0)
           (-20.0 70.0)
  end
  begin
     id 10 
     name rtoes
     direction -1.53574e-011 -4.21658e-011 1   
     length 1.14469   
     axis -90 -7.62852e-016 -20   XYZ
    dof rx
    limits (-90.0 20.0)
  end
  begin
     id 11 
     name lowerback
     direction -0.00135702 0.993803 0.111144   
     length 1.91308   
     axis 0 0 0   XYZ
    dof rx ry rz
    limits (-20.0 45.0)
           (-30.0 30.0)
           (-30.0 30.0)
  end
  begin
     id 12 
     name upperback
     direction -0.0056745 0.999813 0.0184631   
     length 1.9212   
     axis 0 0 0   XYZ
    dof rx ry rz
    limits (-20.0 45.0)
           (-30.0 30.0)
           (-30.0 30.0)
  end
  begin
     id 13 
     name thorax
     direction -0.00733434 0.999426 -0.0330788   
     length 1.94196   
     axis 0 0 0   XYZ
    dof rx ry rz
    limits (-20.0 45.0)
           (-30.0 30.0)
           (-30.0 30.0)
  end
  begin
     id 14 
     name lowerneck
     direction 0.0563074 0.996944 -0.0541571   
     length 2.34257   
     axis 0 0 0   XYZ
    dof rx ry rz
    limits (-20.0 45.0)
           (-30.0 30.0)
           (-30.0 30.0)
  end
  begin
     id 15 
     name upperneck
     direction -0.0544519 0.976166 -0.210085   
     length 2.32506   
     axis 0 0 0   XYZ
    dof rx ry rz
    limits (-20.0 45.0)
           (-30.0 30.0)
           (-30.0 30.0)
  end
  begin
     id 16
     name head
     direction -0.0226035 0.997615 -0.0652205  
     length 2.3648  
     axis 0 0 0   XYZ
    dof rx ry rz
    limits (-20.0 45.0)
           (-30.0 30.0)
           (-30.0 30.0)
  end
  begin
     id 17 
     name lclavicle
     direction 0.92109 0.381297 -0.0787716  
     length 4.0487  
     axis 0 0 0   XYZ
    dof ry rz
    limits (-20.0 10.0)
           (0.0 20.0)
  end
  begin
     id 18 
     name lhumerus
     direction 1 -4.48986e-011 3.56724e-027   
     length 4.94991   
     axis 180 -30 -90   XYZ
    dof rx ry rz
    limits (-60.0 90.0)
           (-90.0 90.0)
           (-90.0 90.0)
  end
  begin
     id 19
     name lradius
     direction 1 -4.48981e-011 8.62147e-027   
     length 2.7606   
     axis 180 -30 -90   XYZ
    dof rx
    limits (-10.0 170.0)
  end
  begin
     id 20
     name lwrist
     direction 1 -4.48989e-011 1.59799e-026   
     length 1.3803   
     axis -1.17785e-014 90 90   XYZ
    dof ry
    limits (-180.0 0.0)
 end
  begin
     id 21 
     name lhand
     direction 1 -4.48896e-011 3.19599e-026   
     length 0.843936   
     axis -2.03931e-014 90 90   XYZ
    dof rx rz
    limits (-90.0 90.0)
           (-45.0 45.0)
  end
  begin
     id 22 
     name lfingers
     direction 1 -4.48887e-011 6.39197e-026   
     length 0.680403   
     axis -4.07862e-014 90 90   XYZ
    dof rx
    limits (0.0 90.0)
  end
  begin
     id 23
     name lthumb
     direction 0.707107 -6.348e-011 0.707107   
     length 0.976926   
     axis -90 45 2.85299e-015   XYZ
    dof rx rz
    limits (-45.0 45.0)
           (-45.0 45.0)
  end
  begin
     id 24 
     name rclavicle
     direction -0.951104 0.307692 -0.026953   
     length 4.21801  
     axis 0 0 0   XYZ 
    dof ry rz
    limits (-10.0 20.0)
           (-20.0 0.0)
  end
  begin
     id 25 
     name rhumerus
     direction -1 -4.4896e-011 -1.8171e-018  
     length 4.32982   
     axis 180 30 90   XYZ
    dof rx ry rz
    limits (-90.0 60.0)
           (-90.0 90.0)
           (-90.0 90.0)
  end
  begin
     id 26 
     name rradius
     direction -1 -4.48959e-011 8.25165e-027   
     length 3.20057   
     axis 180 30 90   XYZ
    dof rx
    limits (-10.0 170.0)
  end
  begin
     id 27 
     name rwrist
     direction -1 -4.48997e-011 1.59799e-026   
     length 1.60029   
     axis -1.17785e-014 -90 -90   XYZ
    dof ry
    limits (-180.0 0.0)
  end
  begin
     id 28
     name rhand
     direction -1 -4.49023e-011 3.19599e-026   
     length 0.960433   
     axis -2.03931e-014 -90 -90   XYZ
    dof rx rz
    limits (-90.0 90.0)
           (-45.0 45.0)
  end
  begin
     id 29
     name rfingers
     direction -1 -4.48802e-011 6.39197e-026   
     length 0.774326   
     axis -4.07862e-014 -90 -90   XYZ
    dof rx
    limits (0.0 90.0)
  end
  begin
     id 30
     name rthumb
     direction -0.707107 -6.34876e-011 0.707107   
     length 1.11178   
     axis -90 -45 -2.85299e-015   XYZ
    dof rx rz
    limits (-45.0 45.0)
           (-45.0 45.0)
  end
:hierarchy
  begin
    root lhipjoint rhipjoint lowerback
    lhipjoint lfemur
    lfemur ltibia
    ltibia lfoot
    lfoot ltoes
    rhipjoint rfemur
    rfemur rtibia
    rtibia rfoot
    rfoot rtoes
    lowerback upperback
    upperback thorax
    thorax lowerneck lclavicle rclavicle
    lowerneck upperneck
    upperneck head
    lclavicle lhumerus
    lhumerus lradius
    lradius lwrist
    lwrist lhand lthumb
    lhand lfingers
    rclavicle rhumerus
    rhumerus rradius
    rradius rwrist
    rwrist rhand rthumb
    rhand rfingers
end

#!OML:ASF C:\KaitlinTest1\Natural Motions\Nikki\Session 2\Nikki.ASF
:FULLY-SPECIFIED
:DEGREES
634
root -18.8559 16.6301 5.05377 -153.962 85.7783 -164.02
lowerback -13.4624 -1.63835 -0.108631
upperback -3.98877 -1.94656 -0.578962
thorax 3.3293 -0.888777 -0.850273
lowerneck -1.79346 1.62993 8.47274
upperneck 27.1455 3.91475 -5.68195
head 9.02243 2.56006 -3.0325
rclavicle 1.04362e-015 1.98785e-015
rhumerus -42.4966 -21.8267 -79.5979
rradius 18.4766
rwrist 28.8055
rhand -35.885 2.99856
rfingers 7.12502
rthumb -8.99879 -26.7895
lclavicle 1.04362e-015 1.98785e-015
lhumerus -42.3371 16.5675 80.1045
lradius 23.8526
lwrist -40.7166
lhand -32.8365 3.73504
lfingers 7.12502
lthumb -6.05637 33.6285
rfemur -7.71838 -16.9073 21.0803
rtibia 11.0411
rfoot -10.7372 12.107
rtoes -2.70347e-014
lfemur -10.0211 12.0197 -17.8699
ltibia 9.84784
lfoot -2.23765 -16.7369
ltoes -3.18055e-015
635
root -18.8563 16.6303 5.054 -153.973 85.7693 -164.032
lowerback -13.4578 -1.63846 -0.108387
upperback -3.97966 -1.94722 -0.579476
thorax 3.33631 -0.88928 -0.851093
lowerneck -1.85683 1.63349 8.5062
upperneck 27.1879 3.92095 -5.71327
head 9.05083 2.56287 -3.04855
rclavicle 8.62228e-015 5.1684e-015
rhumerus -42.4728 -21.8292 -79.6084
rradius 18.4818
rwrist 28.8198
rhand -35.9062 2.97549
rfingers 7.12502
rthumb -9.01931 -26.8117
lclavicle 8.62228e-015 5.1684e-015
lhumerus -42.3049 16.56 80.12
lradius 23.8441
lwrist -40.6668
lhand -32.8411 3.72417
lfingers 7.12502
lthumb -6.06077 33.6175
rfemur -7.71133 -16.8748 21.0827
rtibia 11.0284
rfoot -10.717 12.0666
rtoes 1.59028e-014
lfemur -10.0317 12.0113 -17.867
ltibia 9.85521
lfoot -2.23757 -16.7374
ltoes 6.52014e-014
636
root -18.8556 16.6295 5.05361 -153.984 85.7752 -164.049
lowerback -13.4597 -1.63184 -0.0960291
upperback -3.99149 -1.93911 -0.588404
thorax 3.32429 -0.88505 -0.865894
lowerneck -1.82709 1.62446 8.52833
upperneck 27.1786 3.91275 -5.72959
head 9.04201 2.56042 -3.05895
rclavicle 2.48481e-015 -2.38542e-015
rhumerus -42.4935 -21.8017 -79.6424
rradius 18.5181
rwrist 28.7048
rhand -35.916 2.98088
rfingers 7.12502
rthumb -9.02876 -26.8059
lclavicle 2.48481e-015 -2.38542e-015
lhumerus -42.3175 16.4984 80.1433
lradius 23.847
lwrist -40.5509
lhand -32.8536 3.71618
lfingers 7.12502
lthumb -6.07291 33.6091
rfemur -7.71891 -16.9018 21.0788
rtibia 11.0299
rfoot -10.7376 12.1036
rtoes -4.92986e-014
lfemur -10.0259 12.0162 -17.872
ltibia 9.84722
lfoot -2.26262 -16.7196
ltoes -1.74931e-014
637
root -18.8531 16.6289 5.05351 -153.438 85.8002 -163.458
lowerback -13.4575 -1.61632 -0.0674416
upperback -3.97561 -1.92381 -0.577732
thorax 3.33932 -0.877749 -0.868658
lowerneck -1.81051 1.62908 8.5085
upperneck 27.1738 3.9135 -5.69191
head 9.03646 2.56266 -3.04237
rclavicle 5.36719e-015 2.78299e-015
rhumerus -42.5153 -21.8492 -79.5915
rradius 18.5074
rwrist 28.7597
rhand -35.9407 3.01448
rfingers 7.12502
rthumb -9.0526 -26.7713
lclavicle 5.36719e-015 2.78299e-015
lhumerus -42.2883 16.4232 80.2112
lradius 23.8854
lwrist -40.2747
lhand -32.7433 3.72018
lfingers 7.12502
lthumb -5.96639 33.6162
rfemur -7.66309 -16.8126 21.0938
rtibia 11.0344
rfoot -10.7453 12.0427
rtoes -2.3059e-014
lfemur -9.96157 12.0572 -17.8289
ltibia 9.83898
lfoot -2.262 -16.7324
ltoes -2.8625e-014
638
root -18.8533 16.6298 5.05351 -154.038 85.7793 -164.086
lowerback -13.4679 -1.63824 -0.104046
upperback -3.98464 -1.94677 -0.586243
thorax 3.33618 -0.888901 -0.860722
lowerneck -1.8594 1.62832 8.54775
upperneck 27.2247 3.91943 -5.73812
head 9.06546 2.56532 -3.06489
rclavicle -3.81915e-014 -1.23246e-014
rhumerus -42.4757 -21.7966 -79.6612
rradius 18.5479
rwrist 28.661
rhand -35.8852 2.86629
rfingers 7.12502
rthumb -8.99903 -26.9218
lclavicle -3.81915e-014 -1.23246e-014
lhumerus -42.3207 16.476 80.1642
lradius 23.85
lwrist -40.454
lhand -32.8865 3.6802
lfingers 7.12502
lthumb -6.10459 33.5722
rfemur -7.68497 -16.8444 21.0614
rtibia 11.0402
rfoot -10.736 12.0289
rtoes -9.30312e-014
lfemur -9.99307 12.0186 -17.8697
ltibia 9.8268
lfoot -2.24536 -16.7261
ltoes -8.11041e-014
639
root -18.8548 16.6297 5.05421 -153.948 85.755 -164.003
lowerback -13.4717 -1.63771 -0.0939987
upperback -3.97914 -1.94784 -0.580481
thorax 3.34383 -0.889465 -0.860756
lowerneck -1.82892 1.63362 8.51092
upperneck 27.1665 3.91708 -5.69487
head 9.0377 2.56336 -3.0433
rclavicle 7.50412e-015 5.56597e-015
rhumerus -42.4987 -21.979 -79.5126
rradius 18.483
rwrist 28.9381
rhand -35.9482 3.03527
rfingers 7.12502
rthumb -9.05981 -26.7502
lclavicle 7.50412e-015 5.56597e-015
lhumerus -42.2951 16.4627 80.1743
lradius 23.85
lwrist -40.5481
lhand -32.8223 3.72446
lfingers 7.12502
lthumb -6.04264 33.6183
rfemur -7.70019 -16.7816 21.0836
rtibia 11.0354
rfoot -10.7079 11.9506
rtoes -3.57812e-014
lfemur -10.0062 12.0008 -17.8489
ltibia 9.82305
lfoot -2.23573 -16.7349
ltoes -1.74931e-014
